<svg width="40" height="40" viewBox="0 0 40 40" fill="none" xmlns="http://www.w3.org/2000/svg">
<rect width="40" height="40" rx="20" fill="url(#paint0_radial_361_125)"/>
<path d="M15.25 18C15.0511 18 14.8603 18.079 14.7197 18.2197C14.579 18.3603 14.5 18.5511 14.5 18.75C14.5 18.9489 14.579 19.1397 14.7197 19.2803C14.8603 19.421 15.0511 19.5 15.25 19.5C15.4489 19.5 15.6397 19.421 15.7803 19.2803C15.921 19.1397 16 18.9489 16 18.75C16 18.5511 15.921 18.3603 15.7803 18.2197C15.6397 18.079 15.4489 18 15.25 18ZM14.5 24.25C14.5 24.0511 14.579 23.8603 14.7197 23.7197C14.8603 23.579 15.0511 23.5 15.25 23.5C15.4489 23.5 15.6397 23.579 15.7803 23.7197C15.921 23.8603 16 24.0511 16 24.25C16 24.4489 15.921 24.6397 15.7803 24.7803C15.6397 24.921 15.4489 25 15.25 25C15.0511 25 14.8603 24.921 14.7197 24.7803C14.579 24.6397 14.5 24.4489 14.5 24.25ZM10 14.25C10 13.388 10.3424 12.5614 10.9519 11.9519C11.5614 11.3424 12.388 11 13.25 11H24.75C25.612 11 26.4386 11.3424 27.0481 11.9519C27.6576 12.5614 28 13.388 28 14.25V25.75C28 26.612 27.6576 27.4386 27.0481 28.0481C26.4386 28.6576 25.612 29 24.75 29H13.25C12.388 29 11.5614 28.6576 10.9519 28.0481C10.3424 27.4386 10 26.612 10 25.75V14.25ZM13 18.75C13 19.0455 13.0582 19.3381 13.1713 19.611C13.2843 19.884 13.4501 20.1321 13.659 20.341C13.8679 20.5499 14.116 20.7157 14.389 20.8287C14.6619 20.9418 14.9545 21 15.25 21C15.5455 21 15.8381 20.9418 16.111 20.8287C16.384 20.7157 16.6321 20.5499 16.841 20.341C17.0499 20.1321 17.2157 19.884 17.3287 19.611C17.4418 19.3381 17.5 19.0455 17.5 18.75C17.5 18.1533 17.2629 17.581 16.841 17.159C16.419 16.7371 15.8467 16.5 15.25 16.5C14.6533 16.5 14.081 16.7371 13.659 17.159C13.2371 17.581 13 18.1533 13 18.75ZM15.25 22C14.6533 22 14.081 22.2371 13.659 22.659C13.2371 23.081 13 23.6533 13 24.25C13 24.8467 13.2371 25.419 13.659 25.841C14.081 26.2629 14.6533 26.5 15.25 26.5C15.8467 26.5 16.419 26.2629 16.841 25.841C17.2629 25.419 17.5 24.8467 17.5 24.25C17.5 23.6533 17.2629 23.081 16.841 22.659C16.419 22.2371 15.8467 22 15.25 22ZM19 18.75C19 19.164 19.336 19.5 19.75 19.5H24.25C24.4489 19.5 24.6397 19.421 24.7803 19.2803C24.921 19.1397 25 18.9489 25 18.75C25 18.5511 24.921 18.3603 24.7803 18.2197C24.6397 18.079 24.4489 18 24.25 18H19.75C19.5511 18 19.3603 18.079 19.2197 18.2197C19.079 18.3603 19 18.5511 19 18.75ZM19.75 23.5C19.5511 23.5 19.3603 23.579 19.2197 23.7197C19.079 23.8603 19 24.0511 19 24.25C19 24.4489 19.079 24.6397 19.2197 24.7803C19.3603 24.921 19.5511 25 19.75 25H24.25C24.4489 25 24.6397 24.921 24.7803 24.7803C24.921 24.6397 25 24.4489 25 24.25C25 24.0511 24.921 23.8603 24.7803 23.7197C24.6397 23.579 24.4489 23.5 24.25 23.5H19.75ZM13 14.25C13 14.664 13.336 15 13.75 15H24.25C24.4489 15 24.6397 14.921 24.7803 14.7803C24.921 14.6397 25 14.4489 25 14.25C25 14.0511 24.921 13.8603 24.7803 13.7197C24.6397 13.579 24.4489 13.5 24.25 13.5H13.75C13.5511 13.5 13.3603 13.579 13.2197 13.7197C13.079 13.8603 13 14.0511 13 14.25Z" fill="white"/>
<defs>
<radialGradient id="paint0_radial_361_125" cx="0" cy="0" r="1" gradientUnits="userSpaceOnUse" gradientTransform="translate(38.6486 40) rotate(-133.296) scale(79.6899 66.7514)">
<stop stop-color="#67C6FF"/>
<stop offset="0.63837" stop-color="#127CF1"/>
<stop offset="1" stop-color="#1076E5"/>
</radialGradient>
</defs>
</svg>
