<svg width="40" height="40" viewBox="0 0 40 40" fill="none" xmlns="http://www.w3.org/2000/svg">
<rect width="40" height="40" rx="20" fill="url(#paint0_radial_361_97)"/>
<path d="M29 20V27C29 27.5304 28.7893 28.0391 28.4142 28.4142C28.0391 28.7893 27.5304 29 27 29H13C12.4696 29 11.9609 28.7893 11.5858 28.4142C11.2107 28.0391 11 27.5304 11 27V20H29ZM24 11C24.2652 11 24.5196 11.1054 24.7071 11.2929C24.8946 11.4804 25 11.7348 25 12V13H27C27.5304 13 28.0391 13.2107 28.4142 13.5858C28.7893 13.9609 29 14.4696 29 15V18H11V15C11 14.4696 11.2107 13.9609 11.5858 13.5858C11.9609 13.2107 12.4696 13 13 13H15V12C15 11.7348 15.1054 11.4804 15.2929 11.2929C15.4804 11.1054 15.7348 11 16 11C16.2652 11 16.5196 11.1054 16.7071 11.2929C16.8946 11.4804 17 11.7348 17 12V13H23V12C23 11.7348 23.1054 11.4804 23.2929 11.2929C23.4804 11.1054 23.7348 11 24 11Z" fill="white"/>
<defs>
<radialGradient id="paint0_radial_361_97" cx="0" cy="0" r="1" gradientUnits="userSpaceOnUse" gradientTransform="translate(38.6486 40) rotate(-133.296) scale(79.6899 66.7514)">
<stop stop-color="#67C6FF"/>
<stop offset="0.63837" stop-color="#127CF1"/>
<stop offset="1" stop-color="#1076E5"/>
</radialGradient>
</defs>
</svg>
