<svg width="40" height="40" viewBox="0 0 40 40" fill="none" xmlns="http://www.w3.org/2000/svg">
<rect width="40" height="40" rx="20" fill="url(#paint0_radial_361_109)"/>
<path d="M27.0561 18.803L19.8351 18V12C19.8351 11.4696 19.6244 10.9609 19.2493 10.5858C18.8742 10.2107 18.3655 10 17.8351 10C17.3047 10 16.796 10.2107 16.4209 10.5858C16.0458 10.9609 15.8351 11.4696 15.8351 12V24L12.8041 22.788C12.551 22.6868 12.2799 22.6384 12.0075 22.6458C11.7351 22.6532 11.467 22.7161 11.2198 22.8309C10.9725 22.9456 10.7514 23.1096 10.5698 23.3129C10.3883 23.5162 10.2502 23.7544 10.1641 24.013L10.0511 24.353C9.98764 24.5438 9.98319 24.7493 10.0383 24.9427C10.0934 25.1361 10.2056 25.3083 10.3601 25.437L15.5571 29.769C15.7361 29.918 15.9631 30 16.1971 30H26.8351C27.3655 30 27.8742 29.7893 28.2493 29.4142C28.6244 29.0391 28.8351 28.5304 28.8351 28V20.79C28.8349 20.298 28.6533 19.8233 28.3251 19.4567C27.9969 19.0901 27.5451 18.8574 27.0561 18.803Z" fill="white"/>
<defs>
<radialGradient id="paint0_radial_361_109" cx="0" cy="0" r="1" gradientUnits="userSpaceOnUse" gradientTransform="translate(38.6486 40) rotate(-133.296) scale(79.6899 66.7514)">
<stop stop-color="#67C6FF"/>
<stop offset="0.63837" stop-color="#127CF1"/>
<stop offset="1" stop-color="#1076E5"/>
</radialGradient>
</defs>
</svg>
