<svg width="40.000000" height="40.000000" viewBox="0 0 40 40" fill="none" xmlns="http://www.w3.org/2000/svg" xmlns:xlink="http://www.w3.org/1999/xlink">
	<desc>
			Created with Pixso.
	</desc>
	<defs>
		<radialGradient gradientTransform="translate(38.6486 40) rotate(-133.296) scale(79.6898 66.7514)" cx="0.000000" cy="0.000000" r="1.000000" id="paint_radial_788_46_0" gradientUnits="userSpaceOnUse">
			<stop stop-color="#67C6FF"/>
			<stop offset="0.638370" stop-color="#127CF1"/>
			<stop offset="1.000000" stop-color="#1076E5"/>
		</radialGradient>
	</defs>
	<rect id="Frame 2085653737" rx="19.500000" width="39.000000" height="39.000000" transform="translate(0.500000 0.500000)" fill="url(#paint_radial_788_46_0)" fill-opacity="1.000000"/>
	<path id="7" d="M16.16 27.23C16.31 27.34 16.49 27.39 16.69 27.39Q17.07 27.39 17.31 27.23C17.47 27.13 17.6 26.98 17.7 26.77L24.48 13.55C24.57 13.36 24.63 13.19 24.68 13.04C24.74 12.88 24.77 12.7 24.77 12.49C24.77 12.24 24.68 12.05 24.52 11.92C24.36 11.79 24.15 11.72 23.89 11.72L15.15 11.72C14.89 11.72 14.68 11.79 14.54 11.92C14.39 12.05 14.32 12.24 14.32 12.49C14.32 12.74 14.39 12.94 14.54 13.09C14.68 13.22 14.89 13.29 15.15 13.29L22.66 13.29L16.01 26.2C15.89 26.42 15.85 26.62 15.88 26.82C15.92 26.99 16.02 27.13 16.16 27.23Z" fill="#FFFFFF" fill-opacity="1.000000" fill-rule="evenodd"/>
</svg>
