<svg width="40.000000" height="40.000000" viewBox="0 0 40 40" fill="none" xmlns="http://www.w3.org/2000/svg" xmlns:xlink="http://www.w3.org/1999/xlink">
	<desc>
			Created with Pixso.
	</desc>
	<defs>
		<radialGradient gradientTransform="translate(38.6486 40) rotate(-133.296) scale(79.6898 66.7514)" cx="0.000000" cy="0.000000" r="1.000000" id="paint_radial_788_21_0" gradientUnits="userSpaceOnUse">
			<stop stop-color="#67C6FF"/>
			<stop offset="0.638370" stop-color="#127CF1"/>
			<stop offset="1.000000" stop-color="#1076E5"/>
		</radialGradient>
	</defs>
	<rect id="Frame 2085653737" rx="19.500000" width="39.000000" height="39.000000" transform="translate(0.500000 0.500000)" fill="url(#paint_radial_788_21_0)" fill-opacity="1.000000"/>
	<path id="2" d="M15.11 27.01C15.27 27.16 15.51 27.23 15.83 27.23L24.17 27.23C24.45 27.23 24.66 27.17 24.79 27.04C24.93 26.9 25.01 26.71 25.01 26.44C25.01 26.19 24.93 26.01 24.79 25.89C24.66 25.76 24.45 25.69 24.17 25.69L17.24 25.69L21.44 21.25C22.09 20.59 22.61 19.95 23.01 19.34C23.42 18.72 23.72 18.12 23.91 17.53Q24.15 16.82 24.2 16.1Q24.22 15.9 24.22 15.71Q24.22 14.36 23.67 13.44Q23.5 13.16 23.29 12.92Q22.79 12.35 22.04 12.01C21.32 11.69 20.44 11.53 19.4 11.53Q19.04 11.53 18.69 11.56Q17.8 11.65 16.93 11.97C16.13 12.24 15.44 12.62 14.87 13.09Q14.6 13.29 14.51 13.53C14.47 13.69 14.47 13.85 14.51 14.01C14.56 14.17 14.64 14.3 14.76 14.41C14.87 14.51 15 14.57 15.15 14.58C15.31 14.6 15.49 14.53 15.68 14.39C16.22 13.96 16.79 13.64 17.37 13.44C17.96 13.23 18.58 13.13 19.24 13.13Q20.78 13.13 21.58 13.84C22.12 14.29 22.39 14.96 22.39 15.84Q22.39 15.93 22.38 16.03Q22.34 16.99 21.88 17.93C21.56 18.6 21.03 19.34 20.28 20.15L15.35 25.43C15.2 25.59 15.09 25.75 15 25.91C14.92 26.06 14.89 26.21 14.89 26.38C14.89 26.64 14.96 26.85 15.11 27.01Z" fill="#FFFFFF" fill-opacity="1.000000" fill-rule="evenodd"/>
</svg>
