<svg width="40.000000" height="40.000000" viewBox="0 0 40 40" fill="none" xmlns="http://www.w3.org/2000/svg" xmlns:xlink="http://www.w3.org/1999/xlink">
	<desc>
			Created with Pixso.
	</desc>
	<defs>
		<radialGradient gradientTransform="translate(38.6486 40) rotate(-133.296) scale(79.6898 66.7514)" cx="0.000000" cy="0.000000" r="1.000000" id="paint_radial_788_51_0" gradientUnits="userSpaceOnUse">
			<stop stop-color="#67C6FF"/>
			<stop offset="0.638370" stop-color="#127CF1"/>
			<stop offset="1.000000" stop-color="#1076E5"/>
		</radialGradient>
	</defs>
	<rect id="Frame 2085653737" rx="19.500000" width="39.000000" height="39.000000" transform="translate(0.500000 0.500000)" fill="url(#paint_radial_788_51_0)" fill-opacity="1.000000"/>
	<path id="8" d="M16.1 26.93Q17.36 27.43 19.1 27.43Q20.83 27.43 22.07 26.93Q23.2 26.47 23.84 25.62Q23.9 25.54 23.96 25.45C24.4 24.81 24.62 24.03 24.62 23.12Q24.62 21.97 24.13 21.11Q23.93 20.76 23.65 20.46Q23.36 20.13 23.01 19.88Q22.46 19.48 21.77 19.29C22.14 19.15 22.49 18.97 22.79 18.74C23.26 18.39 23.62 17.95 23.87 17.42Q23.98 17.19 24.06 16.95Q24.27 16.34 24.27 15.66Q24.27 14.41 23.69 13.53Q23.66 13.49 23.63 13.44Q23.53 13.3 23.43 13.18Q22.82 12.44 21.82 12.03C21.06 11.69 20.15 11.53 19.1 11.53C18.05 11.53 17.14 11.69 16.37 12.03C15.59 12.35 14.99 12.82 14.56 13.44C14.15 14.04 13.95 14.78 13.95 15.66Q13.95 16.57 14.29 17.33Q14.48 17.76 14.78 18.15Q15.04 18.46 15.36 18.71Q15.82 19.07 16.4 19.29C15.98 19.41 15.59 19.59 15.25 19.82Q14.89 20.06 14.6 20.36Q14.26 20.73 14.01 21.21Q13.57 22.04 13.57 23.12C13.57 24.03 13.79 24.81 14.21 25.45Q14.3 25.58 14.39 25.69Q15.03 26.48 16.1 26.93ZM20.92 18.3C20.42 18.52 19.81 18.63 19.1 18.63Q17.49 18.63 16.59 17.88Q16.28 17.63 16.08 17.31Q15.69 16.69 15.69 15.82Q15.69 14.93 16.09 14.31Q16.29 14.01 16.59 13.77Q17.49 13.02 19.1 13.02Q20.7 13.02 21.6 13.77C22.22 14.25 22.53 14.94 22.53 15.82Q22.53 16.54 22.23 17.11Q22.17 17.21 22.11 17.31C21.83 17.74 21.43 18.07 20.92 18.3ZM21.91 25.21Q20.97 25.94 19.1 25.94Q17.25 25.94 16.28 25.21C15.63 24.73 15.31 23.99 15.31 23.01Q15.31 21.96 15.82 21.3Q16.01 21.05 16.28 20.85C16.92 20.37 17.86 20.13 19.1 20.13Q20.97 20.13 21.91 20.85Q22.18 21.05 22.37 21.3Q22.88 21.96 22.88 23.01Q22.88 24.1 22.35 24.77Q22.17 25.02 21.91 25.21Z" fill="#FFFFFF" fill-opacity="1.000000" fill-rule="evenodd"/>
</svg>
