<svg width="42.000000" height="37.867157" viewBox="0 0 42 37.8672" fill="none" xmlns="http://www.w3.org/2000/svg" xmlns:xlink="http://www.w3.org/1999/xlink">
	<desc>
			Created with Pixso.
	</desc>
	<defs>
		<radialGradient gradientTransform="translate(34.02 34.0804) rotate(-126.647) scale(38.7011 43.6006)" cx="0.000000" cy="0.000000" r="1.000000" id="paint_radial_610_20_0" gradientUnits="userSpaceOnUse">
			<stop stop-color="#67C6FF"/>
			<stop offset="0.638370" stop-color="#127CF1"/>
			<stop offset="1.000000" stop-color="#1076E5"/>
		</radialGradient>
	</defs>
	<rect id="Frame 310" rx="18.583574" width="41.299999" height="37.167149" transform="translate(0.350000 0.350000)" fill="url(#paint_radial_610_20_0)" fill-opacity="1.000000"/>
	<path id="Vector" d="M20.13 9.49C20.36 9.26 20.67 9.13 21 9.13C21.32 9.13 21.63 9.26 21.86 9.49L30.44 18.06C30.61 18.23 30.72 18.45 30.77 18.69C30.82 18.93 30.79 19.17 30.7 19.4C30.61 19.62 30.45 19.81 30.25 19.95C30.05 20.08 29.81 20.15 29.57 20.15L28.35 20.15L28.35 27.5C28.35 27.83 28.22 28.14 27.99 28.37C27.76 28.6 27.45 28.73 27.12 28.73L24.67 28.73C24.35 28.73 24.03 28.6 23.8 28.37C23.57 28.14 23.45 27.83 23.45 27.5L23.45 23.83C23.45 23.5 23.32 23.19 23.09 22.96C22.86 22.73 22.54 22.6 22.22 22.6L19.77 22.6C19.45 22.6 19.13 22.73 18.9 22.96C18.67 23.19 18.54 23.5 18.54 23.83L18.54 27.5C18.54 27.83 18.42 28.14 18.19 28.37C17.96 28.6 17.64 28.73 17.32 28.73L14.87 28.73C14.54 28.73 14.23 28.6 14 28.37C13.77 28.14 13.64 27.83 13.64 27.5L13.64 20.15L12.42 20.15C12.18 20.15 11.94 20.08 11.74 19.95C11.54 19.81 11.38 19.62 11.29 19.4C11.2 19.17 11.17 18.93 11.22 18.69C11.27 18.45 11.38 18.23 11.55 18.06L20.13 9.49Z" fill="#FFFFFF" fill-opacity="1.000000" fill-rule="evenodd"/>
</svg>
