<svg width="40.000000" height="40.000000" viewBox="0 0 40 40" fill="none" xmlns="http://www.w3.org/2000/svg" xmlns:xlink="http://www.w3.org/1999/xlink">
	<desc>
			Created with Pixso.
	</desc>
	<defs>
		<radialGradient gradientTransform="translate(38.6486 40) rotate(-133.296) scale(79.6898 66.7514)" cx="0.000000" cy="0.000000" r="1.000000" id="paint_radial_788_26_0" gradientUnits="userSpaceOnUse">
			<stop stop-color="#67C6FF"/>
			<stop offset="0.638370" stop-color="#127CF1"/>
			<stop offset="1.000000" stop-color="#1076E5"/>
		</radialGradient>
	</defs>
	<rect id="Frame 2085653737" rx="19.500000" width="39.000000" height="39.000000" transform="translate(0.500000 0.500000)" fill="url(#paint_radial_788_26_0)" fill-opacity="1.000000"/>
	<path id="3" d="M16.85 27.06C17.71 27.31 18.57 27.43 19.42 27.43Q21.05 27.43 22.21 26.9Q23.22 26.43 23.81 25.64Q23.91 25.52 24 25.39Q24.07 25.28 24.13 25.16Q24.63 24.25 24.63 23.05Q24.63 21.82 24.08 20.92Q23.93 20.66 23.73 20.44Q23.58 20.25 23.41 20.1Q22.73 19.47 21.71 19.21C22.12 19.05 22.49 18.84 22.81 18.57C23.25 18.2 23.58 17.76 23.82 17.25C24.07 16.72 24.19 16.14 24.19 15.51C24.19 14.67 24 13.96 23.62 13.37Q23.48 13.16 23.32 12.97Q22.79 12.36 21.97 12.01C21.27 11.69 20.42 11.53 19.42 11.53Q18.78 11.53 18.15 11.63Q17.55 11.73 16.98 11.92Q15.79 12.32 14.91 13.07C14.72 13.21 14.59 13.37 14.54 13.55C14.48 13.71 14.47 13.87 14.51 14.03C14.57 14.19 14.65 14.33 14.76 14.43C14.87 14.52 15.01 14.57 15.17 14.58Q15.44 14.58 15.7 14.39C16.27 13.93 16.85 13.61 17.44 13.42C18.03 13.23 18.65 13.13 19.31 13.13Q20.81 13.13 21.6 13.79C22.13 14.22 22.39 14.84 22.39 15.66Q22.39 16.59 21.99 17.25C21.73 17.67 21.36 18 20.87 18.24C20.4 18.47 19.83 18.59 19.16 18.59L17.75 18.59C17.47 18.59 17.26 18.66 17.11 18.81C16.96 18.94 16.89 19.12 16.89 19.36Q16.89 19.66 17.03 19.86Q17.06 19.91 17.11 19.95C17.26 20.08 17.47 20.15 17.75 20.15L19.31 20.15Q21.03 20.15 21.93 20.85C22.53 21.32 22.83 22.01 22.83 22.92Q22.83 23.87 22.43 24.53C22.17 24.95 21.78 25.28 21.27 25.5C20.75 25.72 20.12 25.83 19.37 25.83Q18.56 25.83 17.78 25.65Q17.57 25.6 17.37 25.54C16.73 25.35 16.08 25.04 15.44 24.62C15.23 24.48 15.04 24.42 14.87 24.44C14.7 24.45 14.56 24.52 14.45 24.64C14.33 24.74 14.25 24.87 14.21 25.03C14.18 25.18 14.19 25.34 14.25 25.52C14.31 25.68 14.43 25.83 14.62 25.96Q15.57 26.68 16.85 27.06Z" fill="#FFFFFF" fill-opacity="1.000000" fill-rule="evenodd"/>
</svg>
