<svg width="40.000000" height="40.000000" viewBox="0 0 40 40" fill="none" xmlns="http://www.w3.org/2000/svg" xmlns:xlink="http://www.w3.org/1999/xlink">
	<desc>
			Created with Pixso.
	</desc>
	<defs>
		<radialGradient gradientTransform="translate(38.6486 40) rotate(-133.296) scale(79.6898 66.7514)" cx="0.000000" cy="0.000000" r="1.000000" id="paint_radial_769_46_0" gradientUnits="userSpaceOnUse">
			<stop stop-color="#67C6FF"/>
			<stop offset="0.638370" stop-color="#127CF1"/>
			<stop offset="1.000000" stop-color="#1076E5"/>
		</radialGradient>
	</defs>
	<rect id="Frame 2085653737" rx="19.500000" width="39.000000" height="39.000000" transform="translate(0.500000 0.500000)" fill="url(#paint_radial_769_46_0)" fill-opacity="1.000000"/>
	<path id="1" d="M15.79 27.04Q16.01 27.23 16.41 27.23L23.71 27.23C23.97 27.23 24.18 27.17 24.33 27.04C24.47 26.9 24.55 26.71 24.55 26.44C24.55 26.19 24.47 26.01 24.33 25.89C24.18 25.76 23.97 25.69 23.71 25.69L21.07 25.69L21.07 12.34C21.07 12.08 21 11.88 20.85 11.77C20.72 11.64 20.55 11.57 20.34 11.57C20.17 11.57 19.99 11.61 19.82 11.68C19.64 11.75 19.46 11.85 19.27 11.97L16.23 13.97C16.04 14.08 15.91 14.23 15.86 14.41Q15.8 14.55 15.8 14.68Q15.8 14.79 15.83 14.89C15.88 15.04 15.95 15.17 16.05 15.29C16.17 15.39 16.31 15.45 16.47 15.46C16.65 15.48 16.83 15.43 17.02 15.33L19.27 13.85L19.27 25.69L16.41 25.69Q16.01 25.69 15.79 25.89Q15.79 25.89 15.79 25.89C15.64 26.01 15.57 26.19 15.57 26.44Q15.57 26.74 15.71 26.94Q15.74 26.99 15.79 27.04Q15.79 27.04 15.79 27.04Z" fill="#FFFFFF" fill-opacity="1.000000" fill-rule="evenodd"/>
</svg>
