<svg width="40.000000" height="40.000000" viewBox="0 0 40 40" fill="none" xmlns="http://www.w3.org/2000/svg" xmlns:xlink="http://www.w3.org/1999/xlink">
	<desc>
			Created with Pixso.
	</desc>
	<defs>
		<radialGradient gradientTransform="translate(38.6486 40) rotate(-133.296) scale(79.6898 66.7514)" cx="0.000000" cy="0.000000" r="1.000000" id="paint_radial_788_31_0" gradientUnits="userSpaceOnUse">
			<stop stop-color="#67C6FF"/>
			<stop offset="0.638370" stop-color="#127CF1"/>
			<stop offset="1.000000" stop-color="#1076E5"/>
		</radialGradient>
	</defs>
	<rect id="Frame 2085653737" rx="19.500000" width="39.000000" height="39.000000" transform="translate(0.500000 0.500000)" fill="url(#paint_radial_788_31_0)" fill-opacity="1.000000"/>
	<path id="4" d="M21.29 26.46C21.29 26.76 21.37 26.98 21.53 27.15C21.69 27.31 21.91 27.39 22.19 27.39C22.48 27.39 22.71 27.31 22.87 27.15C23.03 26.98 23.12 26.76 23.12 26.46L23.12 23.91L24.72 23.91C25 23.91 25.21 23.85 25.36 23.71C25.51 23.58 25.58 23.39 25.58 23.14C25.58 22.89 25.51 22.7 25.36 22.57C25.21 22.44 25 22.37 24.72 22.37L23.12 22.37L23.12 12.49C23.12 12.17 23.03 11.94 22.85 11.79C22.69 11.64 22.49 11.57 22.26 11.57C22.04 11.57 21.85 11.62 21.69 11.72Q21.44 11.88 21.25 12.19L14.54 21.95C14.34 22.22 14.21 22.44 14.14 22.61C14.07 22.77 14.03 22.94 14.03 23.1C14.03 23.36 14.11 23.57 14.27 23.71Q14.54 23.91 14.98 23.91L21.29 23.91L21.29 26.46ZM21.29 14.61L21.29 22.37L15.99 22.37L21.29 14.61Z" fill="#FFFFFF" fill-opacity="1.000000" fill-rule="evenodd"/>
</svg>
