<svg width="40.000000" height="40.000000" viewBox="0 0 40 40" fill="none" xmlns="http://www.w3.org/2000/svg" xmlns:xlink="http://www.w3.org/1999/xlink">
	<desc>
			Created with Pixso.
	</desc>
	<defs>
		<radialGradient gradientTransform="translate(38.6486 40) rotate(-133.296) scale(79.6898 66.7514)" cx="0.000000" cy="0.000000" r="1.000000" id="paint_radial_788_36_0" gradientUnits="userSpaceOnUse">
			<stop stop-color="#67C6FF"/>
			<stop offset="0.638370" stop-color="#127CF1"/>
			<stop offset="1.000000" stop-color="#1076E5"/>
		</radialGradient>
	</defs>
	<rect id="Frame 2085653737" rx="19.500000" width="39.000000" height="39.000000" transform="translate(0.500000 0.500000)" fill="url(#paint_radial_788_36_0)" fill-opacity="1.000000"/>
	<path id="5" d="M17.42 27.06C18.25 27.31 19.09 27.43 19.93 27.43Q21.55 27.43 22.72 26.79Q23.42 26.41 23.92 25.86Q24.27 25.48 24.52 25.03Q24.57 24.95 24.61 24.87Q25.16 23.81 25.16 22.46Q25.16 20.99 24.57 19.89Q24.26 19.28 23.8 18.81Q23.41 18.43 22.92 18.15Q21.86 17.53 20.39 17.53Q19.18 17.53 18.19 18Q18.16 18.02 18.12 18.04C17.7 18.24 17.33 18.5 17.02 18.82L17.02 13.26L23.56 13.26C23.83 13.26 24.04 13.2 24.17 13.07C24.32 12.93 24.39 12.74 24.39 12.49C24.39 12.24 24.32 12.05 24.17 11.92C24.04 11.79 23.83 11.72 23.56 11.72L16.08 11.72Q15.73 11.72 15.52 11.89Q15.49 11.92 15.46 11.94C15.31 12.08 15.24 12.28 15.24 12.56L15.24 20.21C15.24 20.45 15.31 20.64 15.44 20.79Q15.46 20.8 15.48 20.82Q15.69 20.99 16.03 20.99Q16.29 20.99 16.49 20.88C16.64 20.79 16.76 20.68 16.87 20.57C17.31 20.05 17.79 19.68 18.32 19.45Q18.33 19.44 18.34 19.44Q19.12 19.09 20.06 19.09Q21.2 19.09 21.98 19.62Q22.25 19.81 22.48 20.06Q22.67 20.28 22.83 20.52Q23.36 21.37 23.36 22.55C23.36 23.21 23.22 23.79 22.94 24.29Q22.83 24.48 22.7 24.65Q22.33 25.12 21.75 25.43Q20.98 25.83 19.9 25.83Q18.95 25.83 18.06 25.57Q17.97 25.55 17.88 25.52C17.23 25.31 16.61 25 16.01 24.57C15.82 24.44 15.64 24.38 15.46 24.4C15.3 24.41 15.16 24.48 15.04 24.59Q14.99 24.64 14.95 24.69Q14.85 24.82 14.8 24.99C14.76 25.15 14.76 25.31 14.82 25.47C14.88 25.63 15 25.77 15.17 25.89Q15.66 26.28 16.21 26.56Q16.78 26.86 17.42 27.06Z" fill="#FFFFFF" fill-opacity="1.000000" fill-rule="evenodd"/>
</svg>
