<svg width="40.000000" height="40.000000" viewBox="0 0 40 40" fill="none" xmlns="http://www.w3.org/2000/svg" xmlns:xlink="http://www.w3.org/1999/xlink">
	<desc>
			Created with Pixso.
	</desc>
	<defs>
		<radialGradient gradientTransform="translate(38.6486 40) rotate(-133.296) scale(79.6898 66.7514)" cx="0.000000" cy="0.000000" r="1.000000" id="paint_radial_788_61_0" gradientUnits="userSpaceOnUse">
			<stop stop-color="#67C6FF"/>
			<stop offset="0.638370" stop-color="#127CF1"/>
			<stop offset="1.000000" stop-color="#1076E5"/>
		</radialGradient>
	</defs>
	<rect id="Frame 2085653737" rx="19.500000" width="39.000000" height="39.000000" transform="translate(0.500000 0.500000)" fill="url(#paint_radial_788_61_0)" fill-opacity="1.000000"/>
	<path id="10" d="M23.61 26.73Q24.73 27.43 26.29 27.43Q27.88 27.43 29.01 26.71Q29.15 26.63 29.28 26.53C30.09 25.91 30.69 25.01 31.1 23.82C31.52 22.64 31.72 21.18 31.72 19.45Q31.72 15.55 30.33 13.55Q29.8 12.75 29.06 12.27Q27.92 11.53 26.29 11.53C25.11 11.53 24.12 11.83 23.29 12.43C22.49 13.03 21.88 13.92 21.47 15.11Q20.85 16.87 20.85 19.47Q20.85 23.34 22.24 25.39Q22.81 26.24 23.61 26.73ZM9.29 27.04Q9.51 27.23 9.91 27.23L17.21 27.23C17.47 27.23 17.68 27.17 17.83 27.04C17.97 26.9 18.04 26.71 18.04 26.44C18.04 26.19 17.97 26.01 17.83 25.89C17.68 25.76 17.47 25.69 17.21 25.69L14.57 25.69L14.57 12.34C14.57 12.08 14.5 11.88 14.35 11.77C14.22 11.64 14.05 11.57 13.84 11.57C13.67 11.57 13.49 11.61 13.32 11.68C13.14 11.75 12.96 11.85 12.77 11.97L9.73 13.97C9.54 14.08 9.41 14.23 9.35 14.41Q9.3 14.55 9.3 14.68Q9.3 14.79 9.33 14.89C9.38 15.04 9.45 15.17 9.55 15.29C9.67 15.39 9.81 15.45 9.97 15.46C10.15 15.48 10.33 15.43 10.52 15.33L12.77 13.85L12.77 25.69L9.91 25.69Q9.51 25.69 9.29 25.89Q9.29 25.89 9.29 25.89C9.14 26.01 9.07 26.19 9.07 26.44Q9.07 26.74 9.21 26.94Q9.24 26.99 9.29 27.04Q9.29 27.04 9.29 27.04ZM29.01 24.31C28.43 25.35 27.52 25.87 26.29 25.87Q25.35 25.87 24.66 25.46Q24 25.07 23.56 24.31C22.96 23.25 22.66 21.63 22.66 19.45C22.66 17.26 22.96 15.65 23.56 14.63C24.16 13.6 25.07 13.09 26.29 13.09C27.52 13.09 28.43 13.6 29.01 14.63C29.62 15.64 29.92 17.25 29.92 19.45C29.92 21.63 29.62 23.25 29.01 24.31Z" fill="#FFFFFF" fill-opacity="1.000000" fill-rule="evenodd"/>
</svg>
