<svg width="40.000000" height="40.000000" viewBox="0 0 40 40" fill="none" xmlns="http://www.w3.org/2000/svg" xmlns:xlink="http://www.w3.org/1999/xlink">
	<desc>
			Created with Pixso.
	</desc>
	<defs>
		<radialGradient gradientTransform="translate(38.6486 40) rotate(-133.296) scale(79.6898 66.7514)" cx="0.000000" cy="0.000000" r="1.000000" id="paint_radial_788_41_0" gradientUnits="userSpaceOnUse">
			<stop stop-color="#67C6FF"/>
			<stop offset="0.638370" stop-color="#127CF1"/>
			<stop offset="1.000000" stop-color="#1076E5"/>
		</radialGradient>
	</defs>
	<rect id="Frame 2085653737" rx="19.500000" width="39.000000" height="39.000000" transform="translate(0.500000 0.500000)" fill="url(#paint_radial_788_41_0)" fill-opacity="1.000000"/>
	<path id="6" d="M17.22 26.69Q18.45 27.43 20.12 27.43Q21.47 27.43 22.54 26.88Q22.62 26.84 22.7 26.79C23.45 26.35 24.02 25.75 24.44 24.99C24.85 24.23 25.05 23.36 25.05 22.39Q25.05 20.96 24.46 19.86C24.06 19.12 23.51 18.54 22.81 18.12Q22.69 18.05 22.56 17.99Q21.6 17.51 20.39 17.51Q19.22 17.51 18.29 17.98Q18.27 17.98 18.25 17.99C17.62 18.32 17.1 18.79 16.69 19.4C16.46 19.74 16.29 20.13 16.16 20.55L16.16 19.51Q16.16 17.38 16.67 15.97Q17.2 14.54 18.19 13.84Q18.3 13.76 18.41 13.69Q19.35 13.13 20.63 13.13Q20.81 13.13 20.98 13.14Q21.62 13.19 22.24 13.42C22.76 13.59 23.28 13.89 23.78 14.32C23.95 14.45 24.12 14.52 24.28 14.52C24.44 14.5 24.57 14.44 24.68 14.34C24.79 14.24 24.88 14.11 24.92 13.97C24.96 13.81 24.96 13.64 24.92 13.48C24.89 13.31 24.79 13.16 24.63 13.04C24.09 12.56 23.46 12.19 22.74 11.92Q21.69 11.53 20.67 11.53Q19.2 11.53 18.03 12.08C17.26 12.44 16.6 12.98 16.05 13.7Q15.24 14.76 14.82 16.3Q14.4 17.84 14.4 19.86Q14.4 22.26 15.06 23.96Q15.68 25.53 16.82 26.42Q16.91 26.49 17 26.55Q17.11 26.63 17.22 26.69ZM21.73 25.47C21.23 25.75 20.66 25.89 20.01 25.89Q19.09 25.89 18.37 25.51Q18.33 25.49 18.3 25.47C17.8 25.18 17.41 24.78 17.13 24.26L17.13 24.26Q16.71 23.47 16.71 22.46Q16.71 21.45 17.13 20.68C17.41 20.16 17.8 19.76 18.3 19.47Q18.39 19.41 18.48 19.37Q19.16 19.03 20.01 19.03Q20.86 19.03 21.55 19.37Q21.64 19.41 21.73 19.47C22.23 19.76 22.62 20.16 22.9 20.68C23.17 21.19 23.31 21.78 23.31 22.46Q23.31 23.47 22.9 24.26L22.9 24.26C22.62 24.78 22.23 25.18 21.73 25.47Z" fill="#FFFFFF" fill-opacity="1.000000" fill-rule="evenodd"/>
</svg>
