<svg width="40.000000" height="40.000000" viewBox="0 0 40 40" fill="none" xmlns="http://www.w3.org/2000/svg" xmlns:xlink="http://www.w3.org/1999/xlink">
	<desc>
			Created with Pixso.
	</desc>
	<defs>
		<radialGradient gradientTransform="translate(38.6486 40) rotate(-133.296) scale(79.6898 66.7514)" cx="0.000000" cy="0.000000" r="1.000000" id="paint_radial_788_56_0" gradientUnits="userSpaceOnUse">
			<stop stop-color="#67C6FF"/>
			<stop offset="0.638370" stop-color="#127CF1"/>
			<stop offset="1.000000" stop-color="#1076E5"/>
		</radialGradient>
	</defs>
	<rect id="Frame 2085653737" rx="19.500000" width="39.000000" height="39.000000" transform="translate(0.500000 0.500000)" fill="url(#paint_radial_788_56_0)" fill-opacity="1.000000"/>
	<path id="9" d="M16.45 27.04Q17.53 27.43 18.52 27.43Q19.99 27.43 21.16 26.88Q21.56 26.69 21.93 26.44Q22.61 25.96 23.14 25.28Q23.95 24.2 24.37 22.66C24.65 21.63 24.79 20.44 24.79 19.09Q24.79 16.7 24.13 15Q23.54 13.48 22.43 12.62Q22.3 12.52 22.17 12.43C21.32 11.83 20.28 11.53 19.07 11.53Q17.79 11.53 16.77 12.04Q16.63 12.11 16.49 12.19Q16.06 12.44 15.7 12.77Q15.14 13.27 14.76 13.97Q14.14 15.09 14.14 16.56Q14.14 17.87 14.65 18.93Q14.69 19.01 14.73 19.09Q15.1 19.79 15.66 20.3Q15.99 20.6 16.38 20.83Q16.5 20.9 16.63 20.96Q17.59 21.45 18.8 21.45Q19.97 21.45 20.9 20.98Q20.92 20.97 20.94 20.96C21.57 20.64 22.08 20.17 22.48 19.56C22.71 19.2 22.9 18.81 23.03 18.39L23.03 19.45Q23.03 21.56 22.5 22.99C22.16 23.94 21.66 24.65 20.98 25.12Q20.89 25.18 20.81 25.24Q19.87 25.83 18.56 25.83Q18.38 25.83 18.21 25.81Q17.57 25.76 16.95 25.54C16.43 25.35 15.91 25.04 15.42 24.62C15.24 24.48 15.07 24.42 14.91 24.44Q14.8 24.44 14.7 24.48Q14.59 24.52 14.49 24.62Q14.34 24.77 14.27 25.01C14.23 25.16 14.22 25.31 14.25 25.47C14.29 25.63 14.4 25.77 14.56 25.89C15.1 26.39 15.73 26.77 16.45 27.04ZM20.92 19.49C20.42 19.78 19.84 19.93 19.18 19.93C18.53 19.93 17.96 19.78 17.46 19.49C16.98 19.2 16.59 18.79 16.29 18.28Q16.29 18.28 16.29 18.28Q15.88 17.48 15.88 16.48Q15.88 15.46 16.29 14.69Q16.59 14.18 17.02 13.81Q17.22 13.63 17.46 13.48C17.96 13.19 18.53 13.04 19.18 13.04Q20.12 13.04 20.84 13.44Q20.88 13.46 20.92 13.48C21.41 13.78 21.8 14.18 22.08 14.69C22.36 15.21 22.5 15.8 22.5 16.48Q22.5 17.48 22.08 18.28L22.08 18.28C21.8 18.79 21.41 19.2 20.92 19.49Z" fill="#FFFFFF" fill-opacity="1.000000" fill-rule="evenodd"/>
</svg>
