<svg width="42.000031" height="42.000000" viewBox="0 0 42 42" fill="none" xmlns="http://www.w3.org/2000/svg" xmlns:xlink="http://www.w3.org/1999/xlink">
	<desc>
			Created with Pixso.
	</desc>
	<defs>
		<radialGradient gradientTransform="translate(34.02 37.8) rotate(-123.851) scale(41.4696 42.1222)" cx="0.000000" cy="0.000000" r="1.000000" id="paint_radial_610_28_0" gradientUnits="userSpaceOnUse">
			<stop stop-color="#67C6FF"/>
			<stop offset="0.638370" stop-color="#127CF1"/>
			<stop offset="1.000000" stop-color="#1076E5"/>
		</radialGradient>
	</defs>
	<rect id="Frame 312" rx="20.650000" width="41.299999" height="41.299999" transform="translate(0.350000 0.350000)" fill="url(#paint_radial_610_28_0)" fill-opacity="1.000000"/>
	<path id="Vector" d="M20.02 22.96L20.02 30.8L16.1 30.8C15.32 30.8 14.57 30.49 14.02 29.93C13.46 29.38 13.16 28.63 13.16 27.86L13.16 23.94C13.16 23.68 13.26 23.43 13.44 23.24C13.63 23.06 13.88 22.96 14.14 22.96L20.02 22.96ZM27.86 22.96C28.11 22.96 28.36 23.06 28.55 23.24C28.73 23.43 28.84 23.68 28.84 23.94L28.84 27.86C28.84 28.63 28.53 29.38 27.97 29.93C27.42 30.49 26.67 30.8 25.9 30.8L21.98 30.8L21.98 22.96L27.86 22.96ZM25.41 11.2C25.98 11.2 26.55 11.34 27.06 11.62C27.57 11.9 28 12.3 28.3 12.79C28.61 13.28 28.79 13.84 28.83 14.42C28.86 15 28.75 15.57 28.5 16.1L28.84 16.1C29.35 16.1 29.85 16.3 30.22 16.67C30.59 17.04 30.8 17.54 30.8 18.06L30.8 19.04C30.8 19.56 30.59 20.05 30.22 20.42C29.85 20.79 29.35 21 28.84 21L21.98 21L21.98 16.1L20.02 16.1L20.02 21L13.16 21C12.64 21 12.14 20.79 11.77 20.42C11.4 20.05 11.2 19.56 11.2 19.04L11.2 18.06C11.2 17.54 11.4 17.04 11.77 16.67C12.14 16.3 12.64 16.1 13.16 16.1L13.49 16.1C13.27 15.64 13.15 15.13 13.16 14.63C13.16 12.73 14.69 11.2 16.57 11.2C18.29 11.17 19.81 12.27 20.86 14.07L21 14.31C22.01 12.43 23.5 11.26 25.2 11.2L25.41 11.2ZM16.59 13.16C16.2 13.16 15.82 13.31 15.55 13.59C15.27 13.86 15.12 14.24 15.12 14.63C15.12 15.02 15.27 15.39 15.55 15.66C15.82 15.94 16.2 16.1 16.59 16.1L19.67 16.1C18.94 14.23 17.76 13.14 16.59 13.16ZM25.39 13.16C24.23 13.14 23.05 14.23 22.32 16.1L25.41 16.1C25.79 16.09 26.17 15.94 26.44 15.66C26.72 15.38 26.87 15.01 26.87 14.62C26.86 14.23 26.71 13.85 26.43 13.58C26.15 13.31 25.78 13.15 25.39 13.16Z" fill="#FFFFFF" fill-opacity="1.000000" fill-rule="nonzero"/>
</svg>
