<svg width="42.000000" height="42.000000" viewBox="0 0 42 42" fill="none" xmlns="http://www.w3.org/2000/svg" xmlns:xlink="http://www.w3.org/1999/xlink">
	<desc>
			Created with Pixso.
	</desc>
	<defs>
		<radialGradient gradientTransform="translate(34.02 37.8) rotate(-123.851) scale(41.4696 42.1222)" cx="0.000000" cy="0.000000" r="1.000000" id="paint_radial_610_24_0" gradientUnits="userSpaceOnUse">
			<stop stop-color="#67C6FF"/>
			<stop offset="0.638370" stop-color="#127CF1"/>
			<stop offset="1.000000" stop-color="#1076E5"/>
		</radialGradient>
	</defs>
	<rect id="Frame 311" rx="20.650000" width="41.299999" height="41.299999" transform="translate(0.350000 0.350000)" fill="url(#paint_radial_610_24_0)" fill-opacity="1.000000"/>
	<path id="Vector" d="M24.17 10.69L33.28 15.39C33.67 15.59 33.97 15.92 34.14 16.32C34.32 16.73 34.34 17.18 34.22 17.6C33.74 19.26 33.79 19.96 34.11 20.75C34.42 21.54 34.2 22.56 33.39 23.08L20.79 31.2C20.26 31.54 19.59 31.6 19 31.31L14.3 28.94L12.34 27.94L10.94 27.21L10.09 26.76L9.65 26.51L9.33 26.32C8.08 25.56 7.69 24 7.7 22.81C7.7 21.59 8.11 20.08 9.24 19.25L9.61 18.99L10.66 18.29L13.17 16.66L22.37 10.78C22.63 10.61 22.94 10.51 23.25 10.5C23.57 10.48 23.88 10.55 24.17 10.69ZM31.42 19.36L20.79 26.21L20.66 26.29L20.53 26.35C20.39 26.86 20.35 27.23 20.35 27.57C20.35 27.77 20.37 27.98 20.42 28.21L20.47 28.46L31.67 21.23L31.59 20.92C31.48 20.52 31.43 20.1 31.42 19.68L31.42 19.36ZM10.31 21.84C10.2 22.15 10.14 22.48 10.14 22.82C10.14 23.65 10.44 24.09 10.59 24.19L10.97 24.41L11.74 24.82L13.9 25.95L17.92 27.98C17.91 27.86 17.9 27.73 17.9 27.61C17.89 27.14 17.94 26.67 18.04 26.22L18.12 25.86L10.31 21.84ZM23.98 14.65C23.71 14.5 23.39 14.47 23.08 14.55C22.78 14.64 22.52 14.84 22.36 15.11C22.2 15.38 22.15 15.71 22.22 16.02C22.28 16.33 22.47 16.61 22.73 16.79L22.85 16.86L25.42 18.23C25.7 18.38 26.02 18.42 26.32 18.33C26.62 18.25 26.88 18.05 27.04 17.77C27.2 17.5 27.26 17.17 27.19 16.86C27.12 16.55 26.94 16.28 26.68 16.1L26.56 16.02L23.98 14.65Z" fill="#FFFFFF" fill-opacity="1.000000" fill-rule="evenodd"/>
</svg>
