<svg width="36.000000" height="36.000000" viewBox="0 0 36 36" fill="none" xmlns="http://www.w3.org/2000/svg" xmlns:xlink="http://www.w3.org/1999/xlink">
	<desc>
			Created with Pixso.
	</desc>
	<defs>
		<radialGradient gradientTransform="translate(29.16 32.4) rotate(-123.851) scale(35.5453 36.1048)" cx="0.000000" cy="0.000000" r="1.000000" id="paint_radial_606_165_0" gradientUnits="userSpaceOnUse">
			<stop stop-color="#67C6FF"/>
			<stop offset="0.638370" stop-color="#127CF1"/>
			<stop offset="1.000000" stop-color="#1076E5"/>
		</radialGradient>
	</defs>
	<path id="Rectangle 164" d="M18 0C27.94 0 36 8.05 36 18C36 27.94 27.94 36 18 36C8.05 36 0 27.94 0 18C0 8.05 8.05 0 18 0Z" fill="url(#paint_radial_606_165_0)" fill-opacity="1.000000" fill-rule="nonzero"/>
	<path id="Vector" d="M15.16 6C15.03 6.02 14.9 6.07 14.79 6.15C14.79 6.15 13.64 6.88 12.4 7.68C11.17 8.47 9.79 9.34 9.48 9.52L9.42 9.55C8.28 10.26 8.04 11.43 8 12.09C8 12.12 8 12.14 8 12.17C7.99 12.42 8 12.58 8 12.58L8 24.63C8 26.38 10.01 27.23 11.92 27.23C12.56 27.23 13.19 27.12 13.74 26.94C14.1 26.75 14.36 26.38 14.36 26.02L14.36 16.33C14.36 14.2 14.82 13.21 16.18 12.38C16.54 12.19 20.35 9.52 20.35 9.52C20.54 9.34 20.72 8.96 20.72 8.68L20.72 8.6C20.72 8.23 20.54 7.95 20.27 7.76C20 7.58 19.63 7.58 19.36 7.76C19.27 7.85 13.73 11.64 12.54 12.29C11.36 13.03 10.26 13.21 9.99 12.84C9.9 12.75 9.83 12.49 9.82 12.23L9.82 12.17C9.82 11.92 9.88 11.45 10.39 11.13C10.9 10.85 12.16 10.02 13.4 9.23C13.92 8.9 13.98 8.86 14.39 8.6C14.44 8.82 14.58 9.02 14.77 9.15C14.96 9.28 15.19 9.33 15.42 9.29C15.64 9.26 15.85 9.13 15.99 8.95C16.13 8.77 16.2 8.54 16.18 8.31L16.18 6.93C16.18 6.79 16.15 6.66 16.1 6.54C16.05 6.42 15.97 6.32 15.87 6.23C15.78 6.14 15.66 6.08 15.54 6.04C15.42 6 15.29 5.99 15.16 6ZM22.43 9.23C22.28 9.26 22.15 9.32 22.03 9.41C22.03 9.41 17.45 12.53 16.66 13.07L16.63 13.1C15.98 13.6 15.59 14.19 15.41 14.74C15.32 15.05 15.27 15.37 15.27 15.69L15.27 15.98C15.27 16.01 15.27 16.04 15.27 16.07L15.27 27.23C15.27 28.98 17.26 30 19.08 30C19.9 30 20.63 29.82 21.18 29.45C22.27 28.8 27.54 24.63 27.54 24.63C27.81 24.45 28 24.19 28 23.91L28 11.91C28 11.45 27.82 11.18 27.46 10.99C27.18 10.81 26.73 10.89 26.46 11.08C25.01 12.19 21.09 15.31 20.18 15.87C18.91 16.6 17.71 16.79 17.26 16.33C17.08 16.14 17.09 15.97 17.09 15.69C17.09 15.53 17.11 15.4 17.15 15.29C17.2 15.13 17.3 14.93 17.68 14.62C17.7 14.61 17.69 14.61 17.71 14.6C18.37 14.15 20.38 12.76 21.69 11.86C21.76 12.06 21.91 12.23 22.09 12.33C22.28 12.44 22.49 12.48 22.7 12.44C22.91 12.4 23.1 12.29 23.24 12.13C23.37 11.96 23.45 11.75 23.45 11.54L23.45 10.15C23.45 10.02 23.42 9.89 23.37 9.77C23.32 9.65 23.24 9.55 23.15 9.46C23.05 9.37 22.93 9.31 22.81 9.27C22.69 9.23 22.56 9.22 22.43 9.23ZM26.18 15.98L26.18 17.83L21.63 21.4L21.63 19.56L26.18 15.98Z" fill="#F8F8F8" fill-opacity="1.000000" fill-rule="nonzero"/>
</svg>
