<svg width="17" height="17" viewBox="0 0 17 17" fill="none" xmlns="http://www.w3.org/2000/svg">
<path d="M7.27906 10.8148C7.27906 11.0924 7.1688 11.3586 6.97254 11.5548C6.77628 11.7511 6.5101 11.8613 6.23255 11.8613C5.95499 11.8613 5.68881 11.7511 5.49255 11.5548C5.29629 11.3586 5.18604 11.0924 5.18604 10.8148C5.18604 10.5373 5.29629 10.2711 5.49255 10.0748C5.68881 9.87858 5.95499 9.76832 6.23255 9.76832C6.5101 9.76832 6.77628 9.87858 6.97254 10.0748C7.1688 10.2711 7.27906 10.5373 7.27906 10.8148ZM7.27906 10.8148V6.97762M11.4651 10.1172C11.4651 10.3947 11.3548 10.6609 11.1586 10.8572C10.9623 11.0534 10.6961 11.1637 10.4186 11.1637C10.141 11.1637 9.87486 11.0534 9.6786 10.8572C9.48234 10.6609 9.37208 10.3947 9.37208 10.1172C9.37208 9.83961 9.48234 9.57342 9.6786 9.37716C9.87486 9.1809 10.141 9.07065 10.4186 9.07065C10.6961 9.07065 10.9623 9.1809 11.1586 9.37716C11.3548 9.57342 11.4651 9.83961 11.4651 10.1172ZM11.4651 10.1172V6.27995M9.62848 5.49681L8.23313 5.96181C7.77266 6.1153 7.54243 6.19204 7.41092 6.37483C7.27941 6.55762 7.27906 6.80042 7.27906 7.2853V8.37297L11.4651 6.97762V6.82065C11.4651 5.93704 11.4651 5.49507 11.1756 5.28646C10.8857 5.07751 10.4667 5.21739 9.62848 5.49681Z" stroke="#0C6BC5" stroke-width="0.8"/>
<circle cx="8.5" cy="8.5" r="7.5" stroke="#0C6BC5"/>
</svg>
