<svg width="36.000000" height="36.000000" viewBox="0 0 36 36" fill="none" xmlns="http://www.w3.org/2000/svg" xmlns:xlink="http://www.w3.org/1999/xlink">
	<desc>
			Created with Pixso.
	</desc>
	<defs>
		<radialGradient gradientTransform="translate(29.16 32.4) rotate(-123.851) scale(35.5453 36.1048)" cx="0.000000" cy="0.000000" r="1.000000" id="paint_radial_788_66_0" gradientUnits="userSpaceOnUse">
			<stop stop-color="#67C6FF"/>
			<stop offset="0.638370" stop-color="#127CF1"/>
			<stop offset="1.000000" stop-color="#1076E5"/>
		</radialGradient>
	</defs>
	<path id="Rectangle 164" d="M18 0C27.94 0 36 8.05 36 18C36 27.94 27.94 36 18 36C8.05 36 0 27.94 0 18C0 8.05 8.05 0 18 0Z" fill="url(#paint_radial_788_66_0)" fill-opacity="1.000000" fill-rule="nonzero"/>
	<path id="Vector" d="M21.47 8.19L30.04 12.89C30.41 13.09 30.69 13.42 30.85 13.82C31.01 14.23 31.04 14.68 30.92 15.1C30.47 16.76 30.52 17.46 30.82 18.25C31.11 19.04 30.91 20.06 30.14 20.58L18.3 28.7C17.81 29.04 17.17 29.1 16.62 28.81L12.2 26.44L10.36 25.44L9.04 24.71L8.24 24.26L7.83 24.01L7.53 23.82C6.35 23.06 5.99 21.5 6 20.31C6 19.09 6.38 17.58 7.45 16.75L7.8 16.49L8.78 15.79L11.14 14.16L19.78 8.28C20.03 8.11 20.32 8.01 20.62 8C20.92 7.98 21.21 8.05 21.47 8.19ZM28.29 16.86L18.31 23.71L18.18 23.79L18.05 23.85C17.93 24.36 17.88 24.73 17.89 25.07C17.89 25.27 17.91 25.48 17.95 25.71L18 25.96L28.53 18.73L28.45 18.42C28.35 18.02 28.3 17.6 28.29 17.18L28.29 16.86ZM8.45 19.34C8.35 19.65 8.3 19.98 8.3 20.32C8.29 21.15 8.57 21.59 8.72 21.69L9.07 21.91L9.79 22.32L11.83 23.45L15.6 25.48C15.59 25.36 15.59 25.23 15.59 25.11C15.58 24.64 15.62 24.17 15.72 23.72L15.79 23.36L8.45 19.34ZM21.3 12.15C21.04 12 20.74 11.97 20.46 12.05C20.17 12.14 19.93 12.34 19.78 12.61C19.63 12.88 19.58 13.21 19.64 13.52C19.71 13.83 19.88 14.11 20.12 14.29L20.24 14.36L22.65 15.73C22.91 15.88 23.22 15.92 23.5 15.83C23.78 15.75 24.03 15.55 24.18 15.27C24.33 15 24.38 14.67 24.32 14.36C24.25 14.05 24.08 13.78 23.84 13.6L23.72 13.52L21.3 12.15Z" fill="#FFFFFF" fill-opacity="1.000000" fill-rule="evenodd"/>
</svg>
