<svg width="36.000000" height="36.000000" viewBox="0 0 36 36" fill="none" xmlns="http://www.w3.org/2000/svg" xmlns:xlink="http://www.w3.org/1999/xlink">
	<desc>
			Created with Pixso.
	</desc>
	<defs>
		<radialGradient gradientTransform="translate(29.16 32.4) rotate(-123.851) scale(35.5453 36.1048)" cx="0.000000" cy="0.000000" r="1.000000" id="paint_radial_788_91_0" gradientUnits="userSpaceOnUse">
			<stop stop-color="#67C6FF"/>
			<stop offset="0.638370" stop-color="#127CF1"/>
			<stop offset="1.000000" stop-color="#1076E5"/>
		</radialGradient>
	</defs>
	<path id="Rectangle 164" d="M18 0C27.94 0 36 8.05 36 18C36 27.94 27.94 36 18 36C8.05 36 0 27.94 0 18C0 8.05 8.05 0 18 0Z" fill="url(#paint_radial_788_91_0)" fill-opacity="1.000000" fill-rule="nonzero"/>
	<path id="Vector" d="M18 5C21.44 5 24.75 6.36 27.19 8.8C29.63 11.24 31 14.55 31 18C31 21.44 29.63 24.75 27.19 27.19C24.75 29.63 21.44 31 18 31C14.55 31 11.24 29.63 8.8 27.19C6.36 24.75 5 21.44 5 18C5 14.55 6.36 11.24 8.8 8.8C11.24 6.36 14.55 5 18 5ZM19.94 12.98C20.91 12.98 21.69 12.31 21.69 11.31C21.69 10.32 20.91 9.65 19.94 9.65C18.98 9.65 18.2 10.32 18.2 11.31C18.2 12.31 18.98 12.98 19.94 12.98ZM20.28 23.43C20.28 23.23 20.35 22.71 20.31 22.42L18.79 24.17C18.47 24.51 18.08 24.74 17.89 24.68C17.81 24.64 17.74 24.58 17.69 24.51C17.65 24.43 17.63 24.34 17.65 24.25L20.2 16.21C20.4 15.19 19.83 14.26 18.62 14.14C17.34 14.14 15.46 15.44 14.31 17.09C14.31 17.28 14.27 17.77 14.31 18.07L15.84 16.31C16.15 15.98 16.52 15.75 16.71 15.81C16.8 15.84 16.87 15.91 16.92 16C16.96 16.09 16.96 16.19 16.93 16.28L14.41 24.28C14.12 25.21 14.67 26.13 16.01 26.34C17.98 26.34 19.14 25.07 20.29 23.43L20.28 23.43Z" fill="#FFFFFF" fill-opacity="1.000000" fill-rule="nonzero"/>
</svg>
