<svg width="36.000000" height="36.000000" viewBox="0 0 36 36" fill="none" xmlns="http://www.w3.org/2000/svg" xmlns:xlink="http://www.w3.org/1999/xlink">
	<desc>
			Created with Pixso.
	</desc>
	<defs>
		<radialGradient gradientTransform="translate(29.16 32.4) rotate(-123.851) scale(35.5453 36.1048)" cx="0.000000" cy="0.000000" r="1.000000" id="paint_radial_606_161_0" gradientUnits="userSpaceOnUse">
			<stop stop-color="#67C6FF"/>
			<stop offset="0.638370" stop-color="#127CF1"/>
			<stop offset="1.000000" stop-color="#1076E5"/>
		</radialGradient>
	</defs>
	<path id="Rectangle 164" d="M18 0C27.94 0 36 8.05 36 18C36 27.94 27.94 36 18 36C8.05 36 0 27.94 0 18C0 8.05 8.05 0 18 0Z" fill="url(#paint_radial_606_161_0)" fill-opacity="1.000000" fill-rule="nonzero"/>
	<path id="Vector" d="M18 10C20.85 10 23.48 10.53 25.44 11.43C26.42 11.89 27.28 12.45 27.91 13.14C28.5 13.78 28.92 14.56 28.99 15.46L29 15.71L29 20.28C29 21.28 28.55 22.15 27.91 22.85C27.28 23.54 26.42 24.1 25.44 24.56C23.48 25.46 20.85 26 18 26C15.14 26 12.51 25.46 10.55 24.56C9.57 24.1 8.71 23.54 8.08 22.85C7.49 22.21 7.07 21.43 7 20.53L7 20.28L7 15.71C7 14.71 7.44 13.84 8.08 13.14C8.71 12.45 9.57 11.89 10.55 11.43C12.51 10.53 15.14 10 18 10ZM26.8 19.23C26.38 19.51 25.93 19.76 25.44 19.99C23.48 20.89 20.85 21.42 18 21.42C15.14 21.42 12.51 20.89 10.55 19.99C10.08 19.77 9.63 19.52 9.2 19.23L9.2 20.28C9.2 20.54 9.31 20.87 9.67 21.27C10.04 21.68 10.63 22.09 11.44 22.47C13.06 23.22 15.38 23.71 18 23.71C20.61 23.71 22.93 23.22 24.55 22.47C25.36 22.09 25.95 21.68 26.32 21.27C26.69 20.87 26.8 20.54 26.8 20.28L26.8 19.23Z" fill="#FFFFFF" fill-opacity="1.000000" fill-rule="nonzero"/>
</svg>
