<svg width="36.000000" height="36.000000" viewBox="0 0 36 36" fill="none" xmlns="http://www.w3.org/2000/svg" xmlns:xlink="http://www.w3.org/1999/xlink">
	<desc>
			Created with Pixso.
	</desc>
	<defs>
		<radialGradient gradientTransform="translate(29.16 32.4) rotate(-123.851) scale(35.5453 36.1048)" cx="0.000000" cy="0.000000" r="1.000000" id="paint_radial_606_147_0" gradientUnits="userSpaceOnUse">
			<stop stop-color="#67C6FF"/>
			<stop offset="0.638370" stop-color="#127CF1"/>
			<stop offset="1.000000" stop-color="#1076E5"/>
		</radialGradient>
	</defs>
	<path id="Rectangle 164" d="M18 0C27.94 0 36 8.05 36 18C36 27.94 27.94 36 18 36C8.05 36 0 27.94 0 18C0 8.05 8.05 0 18 0Z" fill="url(#paint_radial_606_147_0)" fill-opacity="1.000000" fill-rule="nonzero"/>
	<path id="Intersect" d="M23.83 13.88C23.83 12.25 23.18 10.78 22.12 9.72C21.06 8.65 19.61 8 18 8C16.38 8 14.93 8.65 13.87 9.72C12.82 10.78 12.16 12.25 12.16 13.88C12.16 15.5 12.82 16.97 13.87 18.04C14.93 19.1 16.38 19.76 18 19.76C19.61 19.76 21.06 19.1 22.12 18.04C22.66 17.49 23.09 16.84 23.39 16.13C23.68 15.42 23.83 14.65 23.83 13.88ZM18 29C20.58 29 22.98 28.19 24.98 26.81C24.99 26.75 25 26.7 25 26.64C25 24.29 22.25 21.93 18 21.93C13.62 21.93 11 24.29 11 26.64C11 26.7 11 26.75 11.01 26.81C13.01 28.19 15.41 29 18 29Z" fill="#FFFFFF" fill-opacity="1.000000" fill-rule="evenodd"/>
</svg>
