<svg width="36.000000" height="36.000000" viewBox="0 0 36 36" fill="none" xmlns="http://www.w3.org/2000/svg" xmlns:xlink="http://www.w3.org/1999/xlink">
	<desc>
			Created with Pixso.
	</desc>
	<defs>
		<radialGradient gradientTransform="translate(29.16 32.4) rotate(-123.851) scale(35.5453 36.1048)" cx="0.000000" cy="0.000000" r="1.000000" id="paint_radial_788_83_0" gradientUnits="userSpaceOnUse">
			<stop stop-color="#67C6FF"/>
			<stop offset="0.638370" stop-color="#127CF1"/>
			<stop offset="1.000000" stop-color="#1076E5"/>
		</radialGradient>
	</defs>
	<path id="Rectangle 164" d="M18 0C27.94 0 36 8.05 36 18C36 27.94 27.94 36 18 36C8.05 36 0 27.94 0 18C0 8.05 8.05 0 18 0Z" fill="url(#paint_radial_788_83_0)" fill-opacity="1.000000" fill-rule="nonzero"/>
	<path id="Vector" d="M12.99 9.08C13.87 8.93 14.78 8.98 15.64 9.23C16.51 9.47 17.3 9.91 17.97 10.51L18.01 10.54L18.05 10.51C18.69 9.95 19.44 9.53 20.26 9.28C21.07 9.03 21.93 8.96 22.78 9.07L23.02 9.1C24.09 9.29 25.09 9.76 25.91 10.46C26.73 11.17 27.35 12.08 27.69 13.11C28.04 14.13 28.1 15.23 27.87 16.29C27.64 17.35 27.13 18.32 26.39 19.11L26.21 19.3L26.16 19.34L18.71 26.72C18.54 26.89 18.31 26.99 18.07 27C17.83 27.02 17.59 26.95 17.4 26.8L17.3 26.72L9.81 19.3C9.02 18.52 8.45 17.55 8.18 16.47C7.91 15.4 7.94 14.27 8.27 13.21C8.59 12.16 9.21 11.21 10.04 10.48C10.88 9.75 11.89 9.27 12.99 9.08Z" fill="#F8F8F8" fill-opacity="1.000000" fill-rule="nonzero"/>
</svg>
