<svg width="40" height="40" viewBox="0 0 40 40" fill="none" xmlns="http://www.w3.org/2000/svg">
<rect width="40" height="40" rx="20" fill="url(#paint0_radial_361_94)"/>
<path d="M17.3077 14.4887H19.2308V12.523C19.2308 12.1343 19.118 11.7542 18.9067 11.431C18.6954 11.1077 18.395 10.8558 18.0436 10.707C17.6922 10.5583 17.3056 10.5193 16.9325 10.5952C16.5595 10.671 16.2168 10.8582 15.9479 11.1331C15.6789 11.408 15.4958 11.7583 15.4216 12.1396C15.3474 12.5209 15.3854 12.9161 15.531 13.2753C15.6766 13.6344 15.923 13.9414 16.2393 14.1574C16.5555 14.3734 16.9273 14.4887 17.3077 14.4887ZM24.6154 12.523C24.6154 12.0017 24.4128 11.5018 24.0521 11.1331C23.6915 10.7645 23.2023 10.5574 22.6923 10.5574C22.1823 10.5574 21.6931 10.7645 21.3325 11.1331C20.9718 11.5018 20.7692 12.0017 20.7692 12.523V14.4887H22.6923C23.2023 14.4887 23.6915 14.2816 24.0521 13.9129C24.4128 13.5443 24.6154 13.0444 24.6154 12.523Z" fill="white"/>
<path d="M11.5385 27.855C11.5385 28.6891 11.8626 29.489 12.4397 30.0788C13.0167 30.6687 13.7993 31 14.6154 31H19.0385C19.0895 31 19.1384 30.9793 19.1744 30.9424C19.2105 30.9056 19.2308 30.8556 19.2308 30.8034V21.7615C19.2308 21.7094 19.2105 21.6594 19.1744 21.6225C19.1384 21.5857 19.0895 21.565 19.0385 21.565H11.9231C11.8211 21.565 11.7232 21.6064 11.6511 21.6801C11.579 21.7538 11.5385 21.8538 11.5385 21.9581V27.855ZM19.2308 19.7959V14.4887H20.7692V19.7959C20.7692 19.848 20.7895 19.898 20.8256 19.9349C20.8616 19.9717 20.9105 19.9924 20.9615 19.9924H27.6923C27.9544 19.9925 28.2145 19.9468 28.4615 19.8573C28.9111 19.6942 29.3002 19.3929 29.5757 18.9948C29.8511 18.5967 29.9993 18.1213 30 17.6337V16.8474C30 16.2218 29.7569 15.6219 29.3241 15.1795C28.8913 14.7372 28.3043 14.4887 27.6923 14.4887H25.7433C25.7265 14.4884 25.7101 14.4837 25.6957 14.4749C25.6813 14.4662 25.6694 14.4538 25.6611 14.4389C25.6529 14.424 25.6486 14.4071 25.6487 14.39C25.6487 14.3729 25.6532 14.3561 25.6615 14.3412C26.1067 13.5731 26.2512 12.6614 26.0663 11.7889C25.8813 10.9164 25.3805 10.1476 24.6642 9.63668C23.9479 9.12577 23.0692 8.91051 22.2042 9.03406C21.3392 9.1576 20.5518 9.61083 20 10.3029C19.4482 9.61083 18.6608 9.1576 17.7958 9.03406C16.9308 8.91051 16.0521 9.12577 15.3358 9.63668C14.6195 10.1476 14.1187 10.9164 13.9337 11.7889C13.7488 12.6614 13.8933 13.5731 14.3385 14.3412C14.3468 14.3561 14.3513 14.3729 14.3513 14.39C14.3514 14.4071 14.3471 14.424 14.3389 14.4389C14.3306 14.4538 14.3187 14.4662 14.3043 14.4749C14.2899 14.4837 14.2735 14.4884 14.2567 14.4887H12.3077C11.6957 14.4887 11.1087 14.7372 10.6759 15.1795C10.2431 15.6219 10 16.2218 10 16.8474V17.6337C10.0007 18.1213 10.1489 18.5967 10.4243 18.9948C10.6998 19.3929 11.0889 19.6942 11.5385 19.8573C11.7855 19.9468 12.0456 19.9925 12.3077 19.9924H19.0385C19.0895 19.9924 19.1384 19.9717 19.1744 19.9349C19.2105 19.898 19.2308 19.848 19.2308 19.7959ZM20.7692 12.523C20.7692 12.1343 20.882 11.7542 21.0933 11.431C21.3046 11.1077 21.605 10.8558 21.9564 10.707C22.3078 10.5583 22.6944 10.5193 23.0675 10.5952C23.4405 10.671 23.7832 10.8582 24.0521 11.1331C24.3211 11.408 24.5042 11.7583 24.5784 12.1396C24.6526 12.5209 24.6146 12.9161 24.469 13.2753C24.3234 13.6344 24.077 13.9414 23.7607 14.1574C23.4445 14.3734 23.0727 14.4887 22.6923 14.4887H20.7692V12.523ZM17.1702 10.5623C17.4337 10.543 17.6982 10.5794 17.9473 10.6692C18.1964 10.759 18.4247 10.9003 18.618 11.0842C18.8114 11.2682 18.9655 11.4909 19.071 11.7384C19.1764 11.986 19.2308 12.2531 19.2308 12.523V14.4887H17.3077C16.8104 14.4874 16.333 14.2892 15.9756 13.9358C15.6182 13.5825 15.4086 13.1013 15.3908 12.5934C15.373 12.0854 15.5484 11.5902 15.8802 11.2116C16.2119 10.833 16.6743 10.6 17.1702 10.5623ZM20.9615 31H25.3846C26.2007 31 26.9833 30.6687 27.5603 30.0788C28.1374 29.489 28.4615 28.6891 28.4615 27.855V21.9581C28.4615 21.8538 28.421 21.7538 28.3489 21.6801C28.2768 21.6064 28.1789 21.565 28.0769 21.565H20.9615C20.9105 21.565 20.8616 21.5857 20.8256 21.6225C20.7895 21.6594 20.7692 21.7094 20.7692 21.7615V30.8034C20.7692 30.8556 20.7895 30.9056 20.8256 30.9424C20.8616 30.9793 20.9105 31 20.9615 31Z" fill="white"/>
<defs>
<radialGradient id="paint0_radial_361_94" cx="0" cy="0" r="1" gradientUnits="userSpaceOnUse" gradientTransform="translate(38.6486 40) rotate(-133.296) scale(79.6899 66.7514)">
<stop stop-color="#67C6FF"/>
<stop offset="0.63837" stop-color="#127CF1"/>
<stop offset="1" stop-color="#1076E5"/>
</radialGradient>
</defs>
</svg>
