<svg width="110.000000" height="70.000000" viewBox="0 0 110 70" fill="none" xmlns="http://www.w3.org/2000/svg" xmlns:xlink="http://www.w3.org/1999/xlink">
	<desc>
			Created with Pixso.
	</desc>
	<defs>
		<filter id="filter_211_188_dd" x="0.000000" y="0.000000" width="110.000000" height="70.000000" filterUnits="userSpaceOnUse" color-interpolation-filters="sRGB">
			<feFlood flood-opacity="0" result="BackgroundImageFix"/>
			<feBlend mode="normal" in="SourceGraphic" in2="BackgroundImageFix" result="shape"/>
			<feColorMatrix in="SourceAlpha" type="matrix" values="0 0 0 0 0 0 0 0 0 0 0 0 0 0 0 0 0 0 127 0" result="hardAlpha"/>
			<feOffset dx="3" dy="3"/>
			<feGaussianBlur stdDeviation="1.33333"/>
			<feComposite in2="hardAlpha" operator="arithmetic" k2="-1" k3="1"/>
			<feColorMatrix type="matrix" values="0 0 0 0 0 0 0 0 0 0 0 0 0 0 0 0 0 0 0.25 0"/>
			<feBlend mode="normal" in2="shape" result="effect_innerShadow_1"/>
		</filter>
	</defs>
	<g filter="url(#filter_211_188_dd)">
		<path id="Vector" d="M72 2C72 0.89 72.89 0 74 0L84 0C85.1 0 86 0.89 86 2L86 68C86 69.1 85.1 70 84 70L74 70C72.89 70 72 69.1 72 68L72 2ZM98 0C96.89 0 96 0.89 96 2L96 68C96 69.1 96.89 70 98 70L108 70C109.1 70 110 69.1 110 68L110 2C110 0.89 109.1 0 108 0L98 0ZM58.96 32.76C60.31 33.53 60.31 35.46 58.96 36.23L2.99 68.28C1.66 69.04 0 68.08 0 66.55L0 2.44C0 0.91 1.66 -0.05 2.99 0.71L58.96 32.76Z" fill="#FFFFFF" fill-opacity="1.000000" fill-rule="evenodd"/>
	</g>
</svg>
