<svg width="18" height="18" viewBox="0 0 18 18" fill="none" xmlns="http://www.w3.org/2000/svg">
<path d="M3.68997 3.7532L3.76999 3.75H16.248C16.4143 3.75 16.534 3.90883 16.4884 4.0686L16.4884 4.06871L14.6604 10.4777L14.6603 10.4778C14.556 10.8436 14.3354 11.1655 14.0318 11.3947C13.7282 11.6238 13.3583 11.7479 12.978 11.748C12.9779 11.748 12.9779 11.748 12.9778 11.748H7.03H7.02996C6.64655 11.748 6.27374 11.6221 5.96884 11.3896C5.66403 11.1572 5.44395 10.8312 5.34241 10.4616C5.34238 10.4615 5.34235 10.4614 5.34232 10.4613L4.58241 7.68959L4.57967 7.67958L4.57672 7.66964L3.41829 3.76407L3.68997 3.7532ZM7.20711 16.4571C7.01957 16.6446 6.76522 16.75 6.5 16.75C6.23478 16.75 5.98043 16.6446 5.79289 16.4571C5.60536 16.2696 5.5 16.0152 5.5 15.75C5.5 15.4848 5.60536 15.2304 5.79289 15.0429C5.98043 14.8554 6.23478 14.75 6.5 14.75C6.76522 14.75 7.01957 14.8554 7.20711 15.0429C7.39464 15.2304 7.5 15.4848 7.5 15.75C7.5 16.0152 7.39464 16.2696 7.20711 16.4571ZM14.2071 16.4571C14.0196 16.6446 13.7652 16.75 13.5 16.75C13.2348 16.75 12.9804 16.6446 12.7929 16.4571C12.6054 16.2696 12.5 16.0152 12.5 15.75C12.5 15.4848 12.6054 15.2304 12.7929 15.0429C12.9804 14.8554 13.2348 14.75 13.5 14.75C13.7652 14.75 14.0196 14.8554 14.2071 15.0429C14.3946 15.2304 14.5 15.4848 14.5 15.75C14.5 16.0152 14.3946 16.2696 14.2071 16.4571Z" stroke="white" stroke-width="2"/>
</svg>
